<?xml version="1.0" encoding="utf-8"?>
<!-- Generator: Adobe Illustrator 25.3.1, SVG Export Plug-In . SVG Version: 6.00 Build 0)  -->
<svg version="1.1" id="Layer_1" xmlns="http://www.w3.org/2000/svg" xmlns:xlink="http://www.w3.org/1999/xlink" x="0px" y="0px"
	 viewBox="0 0 1920 1000" style="enable-background:new 0 0 1920 1000;" xml:space="preserve">
<style type="text/css">
	.st0{opacity:0.5;fill:url(#XMLID_4_);enable-background:new    ;}
	.st1{opacity:0.5;fill:#2A3B66;}
	.st2{fill:#2A3B66;}
	.st3{fill:#FEA7AF;}
	.st4{opacity:0.29;fill:#FEA7AF;enable-background:new    ;}
	.st5{fill:#FFFFFF;}
	.st6{opacity:0.33;fill:#FEA7AF;enable-background:new    ;}
</style>
<radialGradient id="XMLID_4_" cx="1050.0148" cy="750.3181" r="767.3112" gradientTransform="matrix(1 0 0 1 -106.1147 -382.6631)" gradientUnits="userSpaceOnUse">
	<stop  offset="5.376341e-03" style="stop-color:#B7C3E9"/>
	<stop  offset="1" style="stop-color:#2A3B66"/>
</radialGradient>
<path id="XMLID_299_" class="st0" d="M1393,697.4c0,0-34.4-81.7-126.3-28.8s-99.4,106.7-275.7,54.9s-210.6-9.8-278,10.8
	c-23.9,7.3-131.6,24.5-259.1,22.2c-150.6-2.7-247.1-50.2-355.5-17.2C-9.9,772.2-33.1,509.1-33.1,509.1l-36-530.5h2026
	c0,0-51.8,160.2-168.1,208.9c-116.2,48.7-99.6,81.7-110.3,163.3c-10.7,81.7-233.9,136.7-218.4,256.7
	C1475.8,727.5,1393,697.4,1393,697.4z"/>
<path id="XMLID_275_" class="st1" d="M-20.6,627.1c12.6,7.9,142.7,167.4,274,93.3c133-75.2,328.8,21.2,468.6-47.7
	c131.9-65,197.9-43.4,286.2-9.8c89.2,34,233.7-39.8,348.6,19.6c114.9,59.4,119.6-38.1,119.6-38.1s-32-85,61-144.6
	c93-59.5,47.3-128.1,73.2-237C1636.4,154,1888-7.2,1888-7.2L-80.1,95.4L-20.6,627.1z"/>
<path id="XMLID_270_" class="st2" d="M-133,505.2c0,0-112.6,281.3,45.1,262.4c157.7-18.8,241.6,7.8,301.7-68.8
	c60.1-76.6,224.1-119.5,331.4-91.8s201.7,61.4,289.5,8.3c17.2-10.4,34.5-20.7,52.2-30.2c18.4-9.8,37.4-18.6,57.2-25.4
	c20.3-7.1,41.4-12,63-13.9c23.3-2.1,46.9-0.6,69.8,4.2c27.3,5.7,53.4,16,77.9,28.9c31.4,16.6,60.2,37.5,87,60.2
	c14.2,12,27.7,24.6,41,37.7c8.8,8.7,16.3,18.9,27.2,25.4c33,19.8,75.6,19.5,112.8,14.5c17.2-2.3,36-6.6,49.6-17.7
	c13.1-10.9,15.7-26.8,11.1-42.3c-5.6-18.5-18.2-35-30.9-49.6c-38.3-44.1-138.9-116.9,63.7-222c71.5-39.3,59.8-156.4,83.5-232.4
	s216.3-222.6,216.3-222.6S339-188.4,329.2-190c-9.7-1.6-561.2,292.3-561.2,292.3L-133,505.2z"/>
<polygon id="XMLID_264_" class="st3" points="420.8,180.4 422.3,177.7 425,176.2 422.3,174.7 420.8,172 419.4,174.7 416.7,176.2 
	419.4,177.7 "/>
<polygon id="XMLID_256_" class="st4" points="817.6,219.7 819,217.2 821.5,215.8 819,214.4 817.6,211.9 816.2,214.4 813.7,215.8 
	816.2,217.2 "/>
<polygon id="XMLID_255_" class="st4" points="850.2,103.7 851.6,101.1 854.2,99.8 851.6,98.4 850.2,95.8 848.8,98.4 846.3,99.8 
	848.8,101.1 "/>
<polygon id="XMLID_250_" class="st5" points="618.3,197.4 621.7,191.1 628,187.6 621.7,184.2 618.3,177.8 614.8,184.2 608.5,187.6 
	614.8,191.1 "/>
<polygon id="XMLID_246_" class="st6" points="1028.2,185.1 1029.8,182.2 1032.7,180.6 1029.8,179.1 1028.2,176.2 1026.7,179.1 
	1023.8,180.6 1026.7,182.2 "/>
<polygon id="XMLID_245_" class="st6" points="1101.8,97.1 1103.4,94.2 1106.2,92.6 1103.4,91.1 1101.8,88.2 1100.2,91.1 
	1097.3,92.6 1100.2,94.2 "/>
</svg>
